<?xml version="1.0" encoding="UTF-8"?>
<svg width="40px" height="40px" viewBox="0 0 40 40" version="1.1" xmlns="http://www.w3.org/2000/svg" xmlns:xlink="http://www.w3.org/1999/xlink">
    <!-- Generator: Sketch 43.2 (39069) - http://www.bohemiancoding.com/sketch -->
    <title>onboarding_logo</title>
    <desc>Created with Sketch.</desc>
    <defs></defs>
    <g id="On-boarding" stroke="none" stroke-width="1" fill="none" fill-rule="evenodd">
        <g id="On-boarding-•-375" transform="translate(-168.000000, -223.000000)" fill="#FFFFFF">
            <g id="All">
                <g id="Content" transform="translate(0.000000, 20.000000)">
                    <g id="Content-Block" transform="translate(36.000000, 203.000000)">
                        <path d="M165.048516,7.67474395 C168.682759,9.81131816 171.118349,12.6864825 171.770629,15.8434412 C172.912177,23.3649717 169.740546,31.1506814 163.420784,35.5655495 C154.294909,41.941167 141.807905,39.8898558 135.531507,30.9752942 C131.180167,24.7950446 130.863357,16.7349745 134.506795,10.1535278 C136.847058,5.57075143 144.999592,3.08606319 154.028941,4.16244801 C154.305768,4.19544384 154.580559,4.23158653 154.853226,4.2708074 C154.596769,4.59385533 154.315402,4.94846457 154.014514,5.32783269 C153.973474,5.32278649 153.932384,5.31781151 153.891245,5.31290802 C145.290739,4.28764546 137.609988,6.62854613 135.532171,10.6966816 C132.091192,16.9130414 132.389287,24.4969887 136.481502,30.3092 C142.3865,38.6962511 154.149243,40.6285839 162.754936,34.6163814 C168.706225,30.4589219 171.699396,23.1112963 170.622681,16.0169458 C170.050191,13.2521651 167.823531,10.6433697 164.463462,8.67093981 C164.596115,8.44477249 164.722931,8.22842752 164.847176,8.01636946 C164.845827,8.01854409 164.844477,8.0207189 164.843125,8.02289388 C164.35853,8.80265008 163.626557,10.0242792 162.736977,11.5308921 C162.134771,12.5508032 161.529235,13.5845797 161.068743,14.3749579 C161.053693,14.4013404 161.024608,14.4521824 160.982263,14.5259788 C160.911829,14.6487246 160.829688,14.7914115 160.736616,14.9525346 C160.470846,15.4126263 160.170666,15.9283832 159.84228,16.4877694 C159.073593,17.7971797 158.279221,19.1266153 157.486362,20.423244 C159.736763,20.2807668 161.822269,19.8683441 163.545792,19.2058318 C165.342943,18.5150545 166.611774,17.6045171 167.091038,16.719158 C167.243421,16.4376571 167.595626,16.3327304 167.877711,16.4847977 C168.159795,16.636865 168.26494,16.9883415 168.112557,17.2698424 C167.478392,18.4413547 165.994497,19.5062261 163.963114,20.2870357 C160.725353,21.5316129 156.356713,21.9385868 151.956932,21.4148025 C144.413441,20.515553 138.349374,17.0921904 137.286357,13.7403396 C137.189617,13.4353032 137.358987,13.109761 137.664656,13.0132209 C137.970325,12.9166808 138.296542,13.0857006 138.393282,13.390737 C138.928751,15.0791486 141.169191,16.901356 144.410384,18.2757589 C144.47671,17.6508975 144.77653,17.0063895 145.223966,16.4373595 C146.430508,14.9026268 147.680272,13.3283376 148.90149,11.8006397 C149.328913,11.2659501 149.722253,10.7752577 150.072532,10.3393395 C150.195154,10.1867381 150.303642,10.0518735 150.396875,9.93609313 C150.452854,9.86657625 150.491282,9.81890257 150.510536,9.79503858 C151.049518,9.12451859 151.896954,8.05128542 153.192385,6.40208195 C153.202065,6.38975814 153.202065,6.38975814 153.211745,6.37743416 C153.479675,6.03632468 154.837202,4.30670615 155.164652,3.89006576 C155.810688,3.06806407 156.189659,2.58854586 156.363186,2.37471149 C157.601127,0.849511069 159.070833,0.0846228598 160.623635,0.00646762563 C161.847153,-0.0551142122 163.053245,0.328039001 163.905515,0.943624662 C165.849188,2.3479628 166.630483,4.84212463 165.048516,7.67474395 Z M145.577478,18.7350151 C147.505561,19.4378684 149.718403,19.9810759 152.094555,20.2643338 C153.443157,20.4248819 154.787481,20.4944259 156.092003,20.4765447 C157.013791,18.9814005 157.944631,17.4281433 158.84049,15.9021022 C159.167455,15.3451378 159.466277,14.831712 159.730735,14.3738926 C159.823243,14.2137467 159.90483,14.0720215 159.974719,13.9502248 C160.016567,13.8772956 160.045163,13.8273077 160.06237,13.7971912 C160.526555,13.0004275 161.133188,11.9647779 161.736672,10.9427036 C162.630474,9.42893953 163.365918,8.20151744 163.856431,7.41223986 C165.359337,4.99383417 164.785855,3.01012165 163.2247,1.88215902 C162.580491,1.41685384 161.632785,1.11578518 160.682119,1.16363391 C159.463231,1.22498265 158.298487,1.83115793 157.265432,3.10392962 C157.097472,3.3109028 156.719454,3.78921437 156.078225,4.60510114 C155.751061,5.0213779 154.393676,6.750814 154.125524,7.0922073 C154.115838,7.10453824 154.115838,7.10453824 154.106153,7.1168691 C152.807885,8.76968392 151.95891,9.84486641 151.415546,10.5208353 C151.395964,10.5451075 151.357659,10.5926302 151.301907,10.6618645 C151.208923,10.7773361 151.100686,10.9118874 150.97832,11.0641702 C150.628635,11.4993497 150.235904,11.9892823 149.809114,12.5231807 C148.589723,14.0485914 147.341854,15.6204939 146.137403,17.1525673 C145.712887,17.6924484 145.494353,18.302781 145.577478,18.7350151 Z" id="onboarding_logo"></path>
                    </g>
                </g>
            </g>
        </g>
    </g>
</svg>