<?xml version="1.0" encoding="UTF-8"?>
<svg width="26px" height="21px" viewBox="0 0 26 21" version="1.1" xmlns="http://www.w3.org/2000/svg" xmlns:xlink="http://www.w3.org/1999/xlink">
    <!-- Generator: Sketch 43.2 (39069) - http://www.bohemiancoding.com/sketch -->
    <title>servings_icon</title>
    <desc>Created with Sketch.</desc>
    <defs></defs>
    <g id="View-Recipe" stroke="none" stroke-width="1" fill="none" fill-rule="evenodd">
        <g id="View-Recipe-•-375" transform="translate(-38.000000, -514.000000)" fill-rule="nonzero">
            <g id="Servings" transform="translate(30.000000, 503.000000)">
                <g id="Icon-Container">
                    <g id="servings_icon" transform="translate(7.531250, 10.812500)">
                        <path d="M13.46875,19.914748 C20.1974971,19.914748 25.609375,17.1307191 25.609375,13.828582 C25.609375,10.5264449 20.1974971,7.742416 13.46875,7.742416 C6.74000295,7.742416 1.328125,10.5264449 1.328125,13.828582 C1.328125,17.1307191 6.74000295,19.914748 13.46875,19.914748 Z" id="Oval-1-Copy-8" fill="#FFFFFF"></path>
                        <path d="M13.46875,20.570998 C6.4248961,20.570998 0.671875,17.6114751 0.671875,13.828582 C0.671875,10.0456889 6.4248961,7.086166 13.46875,7.086166 C20.5126039,7.086166 26.265625,10.0456889 26.265625,13.828582 C26.265625,17.6114751 20.5126039,20.570998 13.46875,20.570998 Z M13.46875,19.914748 C20.1974971,19.914748 25.609375,17.1307191 25.609375,13.828582 C25.609375,10.5264449 20.1974971,7.742416 13.46875,7.742416 C6.74000295,7.742416 1.328125,10.5264449 1.328125,13.828582 C1.328125,17.1307191 6.74000295,19.914748 13.46875,19.914748 Z" id="Oval-1-Copy-5" fill="#25292D"></path>
                        <path d="M13.46875,16.7076025 C20.1974971,16.7076025 25.609375,13.9235736 25.609375,10.6214365 C25.609375,7.31929938 20.1974971,4.5352705 13.46875,4.5352705 C6.74000295,4.5352705 1.328125,7.31929938 1.328125,10.6214365 C1.328125,13.9235736 6.74000295,16.7076025 13.46875,16.7076025 Z" id="Oval-1-Copy-7" fill="#FFFFFF"></path>
                        <path d="M13.46875,17.3638525 C6.4248961,17.3638525 0.671875,14.4043296 0.671875,10.6214365 C0.671875,6.83854343 6.4248961,3.8790205 13.46875,3.8790205 C20.5126039,3.8790205 26.265625,6.83854343 26.265625,10.6214365 C26.265625,14.4043296 20.5126039,17.3638525 13.46875,17.3638525 Z M13.46875,16.7076025 C20.1974971,16.7076025 25.609375,13.9235736 25.609375,10.6214365 C25.609375,7.31929938 20.1974971,4.5352705 13.46875,4.5352705 C6.74000295,4.5352705 1.328125,7.31929938 1.328125,10.6214365 C1.328125,13.9235736 6.74000295,16.7076025 13.46875,16.7076025 Z" id="Oval-1-Copy-4" fill="#25292D"></path>
                        <path d="M13.46875,13.500457 C20.1974971,13.500457 25.609375,10.7164281 25.609375,7.414291 C25.609375,4.11215387 20.1974971,1.328125 13.46875,1.328125 C6.74000295,1.328125 1.328125,4.11215387 1.328125,7.414291 C1.328125,10.7164281 6.74000295,13.500457 13.46875,13.500457 Z" id="Oval-1-Copy-6" fill="#FFFFFF"></path>
                        <path d="M13.46875,14.156707 C6.4248961,14.156707 0.671875,11.1971841 0.671875,7.414291 C0.671875,3.63139793 6.4248961,0.671875 13.46875,0.671875 C20.5126039,0.671875 26.265625,3.63139793 26.265625,7.414291 C26.265625,11.1971841 20.5126039,14.156707 13.46875,14.156707 Z M13.46875,13.500457 C20.1974971,13.500457 25.609375,10.7164281 25.609375,7.414291 C25.609375,4.11215387 20.1974971,1.328125 13.46875,1.328125 C6.74000295,1.328125 1.328125,4.11215387 1.328125,7.414291 C1.328125,10.7164281 6.74000295,13.500457 13.46875,13.500457 Z" id="Oval-1-Copy-3" fill="#25292D"></path>
                    </g>
                </g>
            </g>
        </g>
    </g>
</svg>