<?xml version="1.0" encoding="UTF-8"?>
<svg width="40px" height="28px" viewBox="0 0 40 28" version="1.1" xmlns="http://www.w3.org/2000/svg" xmlns:xlink="http://www.w3.org/1999/xlink">
    <!-- Generator: Sketch 43.2 (39069) - http://www.bohemiancoding.com/sketch -->
    <title>Icon</title>
    <desc>Created with Sketch.</desc>
    <defs></defs>
    <g id="Create" stroke="none" stroke-width="1" fill="none" fill-rule="evenodd">
        <g id="Create-•-375" transform="translate(-168.000000, -103.000000)" fill-rule="nonzero" fill="#FFFFFF">
            <g id="All">
                <g id="Hero">
                    <g id="Content-Block" transform="translate(0.000000, 20.000000)">
                        <g id="Content" transform="translate(50.000000, 83.000000)">
                            <path d="M118,6.2578617 C118,5.0108791 119.013885,4 120.244195,4 L127.248375,4 C127.663486,4 128.254833,3.7734818 128.56083,3.5014849 L131.93917,0.4985151 C132.248908,0.2231928 132.84127,0 133.256075,0 L142.743925,0 C143.161494,0 143.754833,0.2265182 144.06083,0.4985151 L147.43917,3.5014849 C147.748908,3.7768072 148.332718,4 148.751625,4 L155.755805,4 C156.99524,4 158,5.0006946 158,6.2578617 L158,25.7421383 C158,26.9891209 156.991225,28 155.749287,28 L120.250713,28 C119.007678,28 118,26.9993054 118,25.7421383 L118,6.2578617 Z M119,6.2578617 L119,25.7421383 C119,26.4435145 119.556457,27 120.250713,27 L155.749287,27 C156.438683,27 157,26.4370898 157,25.7421383 L157,6.2578617 C157,5.5558374 156.4458,5 155.755805,5 L148.751625,5 C148.088992,5 147.268485,4.6877197 146.774807,4.2488942 L143.396466,1.2459244 C143.272379,1.1356254 142.915047,1 142.743926,1 L133.256075,1 C133.08455,1 132.729001,1.1343984 132.603534,1.2459244 L129.225193,4.2488942 C128.735001,4.6846208 127.906874,5 127.248375,5 L120.244195,5 C119.563751,5 119,5.5655956 119,6.2578617 Z M138,24 C142.69442,24 146.5,20.1944204 146.5,15.5 C146.5,10.8055796 142.69442,7 138,7 C133.30558,7 129.5,10.8055796 129.5,15.5 C129.5,20.1944204 133.30558,24 138,24 Z M138,23 C133.857864,23 130.5,19.6421356 130.5,15.5 C130.5,11.3578644 133.857864,8 138,8 C142.142136,8 145.5,11.3578644 145.5,15.5 C145.5,19.6421356 142.142136,23 138,23 Z M150,7.2452393 C150,7.1097974 150.107529,7 150.245239,7 L151.754761,7 C151.890203,7 152,7.1075287 152,7.2452393 L152,8.7547607 C152,8.8902026 151.892471,9 151.754761,9 L150.245239,9 C150.109797,9 150,8.8924713 150,8.7547607 L150,7.2452393 Z M120,2.2523422 C120,2.1129775 120.104432,2 120.24116,2 L124.75884,2 C124.892029,2 125,2.1070175 125,2.2523422 L125,2.7476578 C125,2.8870225 124.895568,3 124.75884,3 L120.24116,3 C120.107971,3 120,2.8929825 120,2.7476578 L120,2.2523422 Z" id="Icon"></path>
                        </g>
                    </g>
                </g>
            </g>
        </g>
    </g>
</svg>