<?xml version="1.0" encoding="UTF-8"?>
<svg width="124px" height="70px" viewBox="0 0 124 70" version="1.1" xmlns="http://www.w3.org/2000/svg" xmlns:xlink="http://www.w3.org/1999/xlink">
    <!-- Generator: Sketch 43.2 (39069) - http://www.bohemiancoding.com/sketch -->
    <title>easter_egg</title>
    <desc>Created with Sketch.</desc>
    <defs></defs>
    <g id="Home" stroke="none" stroke-width="1" fill="none" fill-rule="evenodd">
        <g id="Home-•-375" transform="translate(-125.000000, -1347.000000)" fill="#C8C8C8">
            <g id="All">
                <g id="Footer" transform="translate(0.000000, 1307.000000)">
                    <g id="easter_egg" transform="translate(125.000000, 40.000000)">
                        <path d="M76.0485162,7.62144711 C79.682759,9.74318401 82.1183486,12.5983819 82.7706291,15.7334173 C83.9121772,23.202715 80.7405463,30.9343572 74.420784,35.3185665 C65.2949089,41.6499089 52.8079051,39.612843 46.5315072,30.760188 C42.1801672,24.6228568 41.8633569,16.6187594 45.5067947,10.0830171 C47.8470582,5.53206566 55.9995915,3.0646322 65.0289409,4.13354212 C65.3057678,4.16630881 65.5805589,4.20220051 65.8532261,4.24114901 C65.5967686,4.56195356 65.3154024,4.91410023 65.014514,5.29083385 C64.9734738,5.2858227 64.932384,5.28088227 64.8912449,5.27601282 C56.2907391,4.25787014 48.6099884,6.58251456 46.5321713,10.6223991 C43.0911915,16.7955897 43.3892873,24.3268708 47.4815018,30.0987194 C53.3864999,38.4275271 65.1492432,40.3464409 73.7549365,34.3759898 C79.7062254,30.2474016 82.6993959,22.9508011 81.6226812,15.905717 C81.0501905,13.1601362 78.8235307,10.5694574 75.4634617,8.61072495 C75.5961148,8.38612824 75.7229306,8.17128566 75.8471761,7.96070023 C75.8458273,7.96285975 75.8444771,7.96501946 75.8431254,7.96717934 C75.3585301,8.74152056 74.6265568,9.9546662 73.7369774,11.4508165 C73.134771,12.4636448 72.5292345,13.4902423 72.0687427,14.2751318 C72.0536934,14.301331 72.0246081,14.3518201 71.9822626,14.4251039 C71.9118292,14.5469973 71.8296885,14.6886934 71.7366162,14.8486976 C71.4708455,15.3055942 71.1706662,15.8177694 70.8422798,16.373271 C70.0735934,17.6735882 69.2792206,18.9937916 68.486362,20.2814159 C70.7367626,20.1399282 72.8222692,19.7303695 74.5457918,19.072458 C76.3429433,18.3864778 77.611774,17.4822635 78.0910382,16.6030528 C78.2434208,16.3235067 78.5956261,16.2193087 78.8777108,16.3703199 C79.1597955,16.5213312 79.2649397,16.8703669 79.1125571,17.149913 C78.4783919,18.3132898 76.9944975,19.3707661 74.9631145,20.1461535 C71.7253531,21.3820878 67.356713,21.7862355 62.9569323,21.2660886 C55.4134407,20.3730839 49.3493738,16.9734946 48.2863568,13.6449206 C48.1896165,13.3420024 48.3589867,13.018721 48.6646557,12.9228513 C48.9703247,12.8269817 49.2965419,12.9948276 49.3932822,13.2977458 C49.9287506,14.9744323 52.1691911,16.7839855 55.4103841,18.1488439 C55.4767105,17.5283218 55.7765299,16.8882895 56.2239663,16.3232112 C57.4305077,14.7991364 58.6802716,13.2357797 59.9014905,11.7186908 C60.3289133,11.1877143 60.7222529,10.7004295 61.0725319,10.2675385 C61.1951537,10.1159968 61.3036423,9.98206885 61.3968754,9.86709248 C61.4528545,9.79805836 61.4912815,9.75071575 61.5105358,9.72701747 C62.0495184,9.06115388 62.8969537,7.99537372 64.1923851,6.35762305 C64.2020652,6.34538482 64.2020652,6.34538482 64.2117453,6.33314642 C64.4796746,5.99440576 65.8372022,4.27679847 66.1646522,3.86305141 C66.8106877,3.04675807 67.1896587,2.57056985 67.3631864,2.35822044 C68.6011273,0.843611686 70.0708333,0.084035201 71.6236347,0.00642271156 C72.847153,-0.0547314746 74.0532452,0.325760952 74.9055151,0.937071713 C76.8491878,2.3316575 77.6304829,4.80849876 76.0485162,7.62144711 Z M56.5774782,18.6049109 C58.5055609,19.3028832 60.7184034,19.8423185 63.0945546,20.1236092 C64.4431569,20.2830424 65.787481,20.3521035 67.0920033,20.3343464 C68.0137908,18.8495852 68.9446308,17.3071146 69.8404898,15.7916709 C70.1674545,15.2385743 70.4662771,14.728714 70.7307352,14.2740739 C70.823243,14.1150402 70.90483,13.9742992 70.9747189,13.8533482 C71.0165668,13.7809255 71.0451634,13.7312848 71.0623705,13.7013774 C71.5265545,12.9101467 72.1331882,11.8816892 72.7366719,10.8667126 C73.6304737,9.36346078 74.365918,8.14456246 74.8564306,7.36076597 C76.359337,4.95915477 75.7858552,2.98921803 74.2246997,1.86908848 C73.580491,1.40701458 72.6327852,1.10803667 71.6821187,1.15555311 C70.4632315,1.21647583 69.2984868,1.81844156 68.2654316,3.08237455 C68.0974718,3.28791042 67.7194545,3.76290038 67.0782249,4.57312127 C66.7510606,4.98650722 65.3936763,6.70393335 65.125524,7.04295586 C65.1158385,7.05520117 65.1158385,7.05520117 65.1061528,7.0674464 C63.8078847,8.70878334 62.9589102,9.77649928 62.4155464,10.4477739 C62.3959639,10.4718776 62.3576586,10.5190702 62.3019071,10.5878238 C62.2089226,10.7024935 62.100686,10.8361104 61.9783202,10.9873357 C61.6286348,11.4194931 61.2359043,11.9060233 60.8091139,12.4362141 C59.5897234,13.9510318 58.3418542,15.5120183 57.1374034,17.0334523 C56.7128872,17.5695841 56.4943527,18.1756784 56.5774782,18.6049109 Z" id="Combined-Shape"></path>
                        <text id="Time-to-hit-the-pans" font-family="OpenSans, Open Sans" font-size="13" font-weight="normal">
                            <tspan x="0.315185547" y="66">Time to hit the pans.</tspan>
                        </text>
                    </g>
                </g>
            </g>
        </g>
    </g>
</svg>