<?xml version="1.0" encoding="UTF-8"?>
<svg width="35px" height="35px" viewBox="0 0 35 35" version="1.1" xmlns="http://www.w3.org/2000/svg" xmlns:xlink="http://www.w3.org/1999/xlink">
    <!-- Generator: Sketch 43.2 (39069) - http://www.bohemiancoding.com/sketch -->
    <title>visit_icon</title>
    <desc>Created with Sketch.</desc>
    <defs></defs>
    <g id="Home" stroke="none" stroke-width="1" fill="none" fill-rule="evenodd">
        <g id="Home-•-375" transform="translate(-86.000000, -665.000000)">
            <g id="All">
                <g id="Recipe-List" transform="translate(28.000000, 453.000000)">
                    <g id="visit_icon" transform="translate(58.000000, 212.000000)">
                        <rect id="form" fill="#FFFFFF" x="0" y="0" width="35" height="35" rx="17.5"></rect>
                        <path d="M22.6945654,11.7647059 L18.6470588,11.7647059 C18.4358911,11.7647059 18.2647059,11.5935206 18.2647059,11.3823529 C18.2647059,11.1711852 18.4358911,11 18.6470588,11 L23.6176471,11 C23.8288148,11 24,11.1711852 24,11.3823529 L24,16.3529412 C24,16.5641089 23.8288148,16.7352941 23.6176471,16.7352941 C23.4064794,16.7352941 23.2352941,16.5641089 23.2352941,16.3529412 L23.2352941,12.3054346 L16.2409526,19.2997761 C16.0916345,19.4490942 15.849542,19.4490942 15.7002239,19.2997761 C15.5509058,19.150458 15.5509058,18.9083655 15.7002239,18.7590474 L22.6945654,11.7647059 L22.6945654,11.7647059 Z M23.2352941,19.0294118 C23.2352941,18.8182441 23.4064794,18.6470588 23.6176471,18.6470588 C23.8288148,18.6470588 24,18.8182441 24,19.0294118 L24,22.8552122 C24,23.4885012 23.4877617,24 22.8522746,24 L12.1477254,24 C11.5131395,24 11,23.488091 11,22.8522746 L11,12.1477254 C11,11.515545 11.5159326,11 12.1447878,11 L15.9705882,11 C16.1817559,11 16.3529412,11.1711852 16.3529412,11.3823529 C16.3529412,11.5935206 16.1817559,11.7647059 15.9705882,11.7647059 L12.1447878,11.7647059 C11.9381394,11.7647059 11.7647059,11.9380091 11.7647059,12.1477254 L11.7647059,22.8522746 C11.7647059,23.0653441 11.9350644,23.2352941 12.1477254,23.2352941 L22.8522746,23.2352941 C23.0656734,23.2352941 23.2352941,23.0659183 23.2352941,22.8552122 L23.2352941,19.0294118 Z" id="open_external_icon" fill="#4A4949" fill-rule="nonzero"></path>
                    </g>
                </g>
            </g>
        </g>
    </g>
</svg>