<?xml version="1.0" encoding="UTF-8"?>
<svg width="26px" height="26px" viewBox="0 0 26 26" version="1.1" xmlns="http://www.w3.org/2000/svg" xmlns:xlink="http://www.w3.org/1999/xlink">
    <!-- Generator: Sketch 43.2 (39069) - http://www.bohemiancoding.com/sketch -->
    <title>time_icon</title>
    <desc>Created with Sketch.</desc>
    <defs></defs>
    <g id="View-Recipe" stroke="none" stroke-width="1" fill="none" fill-rule="evenodd">
        <g id="View-Recipe-•-375" transform="translate(-38.000000, -553.000000)">
            <g id="Time" transform="translate(30.000000, 545.000000)">
                <g id="Icon-Container">
                    <g id="time_icon" transform="translate(8.000000, 8.000000)">
                        <path d="M13,25.796875 C5.93248109,25.796875 0.203125,20.0675189 0.203125,13 C0.203125,5.93248109 5.93248109,0.203125 13,0.203125 C20.0675189,0.203125 25.796875,5.93248109 25.796875,13 C25.796875,20.0675189 20.0675189,25.796875 13,25.796875 Z" id="Oval-1-Copy" fill="#FFFFFF"></path>
                        <path d="M13,25.796875 C5.93248109,25.796875 0.203125,20.0675189 0.203125,13 C0.203125,5.93248109 5.93248109,0.203125 13,0.203125 C20.0675189,0.203125 25.796875,5.93248109 25.796875,13 C25.796875,20.0675189 20.0675189,25.796875 13,25.796875 Z M13,25.140625 C19.705082,25.140625 25.140625,19.705082 25.140625,13 C25.140625,6.29491796 19.705082,0.859375 13,0.859375 C6.29491796,0.859375 0.859375,6.29491796 0.859375,13 C0.859375,19.705082 6.29491796,25.140625 13,25.140625 Z M13.3930664,13.0728691 L13.3930664,13.0728691 L18.6228566,16.3408047 C18.7765385,16.4368359 18.8232738,16.6392683 18.7272426,16.7929503 C18.6312115,16.9466322 18.428779,16.9933674 18.2750971,16.8973363 L13.3930664,13.8467049 L13.3930664,15.0038834 C13.3930664,15.1851018 13.2461598,15.3320084 13.0649414,15.3320084 C12.883723,15.3320084 12.7368164,15.1851018 12.7368164,15.0038834 L12.7368164,13.4366344 L11.194604,12.4729532 C11.0409221,12.376922 10.9941869,12.1744896 11.090218,12.0208076 C11.1862492,11.8671257 11.3886816,11.8203905 11.5423636,11.9164216 L12.7368164,12.6627986 L12.7368164,5.30369374 C12.7368164,5.1224753 12.883723,4.97556874 13.0649414,4.97556874 C13.2461598,4.97556874 13.3930664,5.1224753 13.3930664,5.30369374 L13.3930664,13.0728691 Z" id="Combined-Shape" fill="#25292D" fill-rule="nonzero"></path>
                    </g>
                </g>
            </g>
        </g>
    </g>
</svg>